<svg xmlns="http://www.w3.org/2000/svg" width="812" height="344" viewBox="0 0 812 344" version="1.1">
	<path d="M 17 89 L 17 162 90 162 L 163 162 163 89 L 163 16 90 16 L 17 16 17 89 M 237.500 49.402 C 226.221 52.978, 217.176 60.835, 211.827 71.699 C 208.695 78.061, 208.500 79.077, 208.500 89 C 208.500 98.923, 208.695 99.939, 211.827 106.301 C 216.111 115.002, 223.516 122.400, 231.938 126.391 C 238.375 129.441, 238.831 129.506, 255.844 129.834 C 272.278 130.151, 273.160 130.072, 272.647 128.334 C 272.349 127.325, 271.379 123.575, 270.492 120 C 269.605 116.425, 268.449 111.849, 267.923 109.831 L 266.967 106.162 254.733 105.831 C 243.817 105.536, 242.148 105.249, 239.227 103.166 C 235.046 100.184, 232 94.213, 232 89 C 232 83.787, 235.046 77.816, 239.227 74.834 C 242.148 72.751, 243.817 72.464, 254.733 72.169 L 266.967 71.838 267.923 68.169 C 268.449 66.151, 269.605 61.575, 270.492 58 C 271.379 54.425, 272.337 50.712, 272.620 49.750 C 273.096 48.133, 271.928 48.005, 257.317 48.067 C 247.496 48.108, 239.984 48.615, 237.500 49.402 M 295.500 49.347 C 284.034 53.141, 275.160 60.867, 269.827 71.699 C 266.695 78.061, 266.500 79.077, 266.500 89 C 266.500 98.923, 266.695 99.939, 269.827 106.301 C 274.111 115.002, 281.516 122.400, 289.938 126.391 C 296.043 129.284, 297.265 129.500, 307.500 129.500 C 317.543 129.500, 319 129.254, 324.248 126.678 C 332.518 122.618, 340.353 115.060, 344.027 107.596 C 354.402 86.523, 345.656 61.667, 324.248 51.382 C 319.445 49.074, 316.938 48.571, 309 48.322 C 303.015 48.134, 298.020 48.513, 295.500 49.347 M 349.916 51.894 L 353 55.788 353 92.894 L 353 130 364.977 130 L 376.954 130 377.227 112.334 L 377.500 94.668 388.500 118.274 C 394.550 131.257, 399.786 141.569, 400.135 141.190 C 400.485 140.810, 405.660 129.955, 411.635 117.068 L 422.500 93.635 422.773 111.818 L 423.045 130 435.023 130 L 447 130 447 88.974 L 447 47.948 431.908 48.224 L 416.817 48.500 408.847 67.500 C 404.464 77.950, 400.543 86.840, 400.134 87.255 C 399.725 87.670, 395.605 79.007, 390.977 68.005 L 382.563 48 364.698 48 L 346.832 48 349.916 51.894 M 452.804 51.298 L 456 54.595 456 92.298 L 456 130 482.500 130 L 509 130 509 118 L 509 106 494.500 106 L 480 106 480 103.237 C 480 100.661, 481.172 99.883, 497.250 91.794 L 514.500 83.114 497.250 83.057 L 480 83 480 77.500 L 480 72 494.500 72 L 509 72 509 60 L 509 48 479.304 48 L 449.608 48 452.804 51.298 M 515.750 51.241 L 519 54.595 519 92.298 L 519 130 531 130 L 543 130 543 101 L 543 72 552.800 72 C 563.690 72, 565 72.608, 565 77.665 C 565 81.922, 562.891 83, 554.566 83 L 548 83 548.053 93.750 L 548.106 104.500 577.112 128.858 C 593.065 142.255, 606.249 153.055, 606.410 152.858 C 606.571 152.661, 600.298 141.700, 592.469 128.500 L 578.234 104.500 582.110 101.178 C 584.989 98.710, 586.404 96.418, 587.612 92.263 C 589.569 85.530, 589.752 71.225, 587.957 65.242 C 586.346 59.877, 581.017 53.590, 575.643 50.716 C 571.678 48.595, 570.235 48.487, 542 48.193 L 512.500 47.887 515.750 51.241 M 620.500 49.402 C 609.221 52.978, 600.176 60.835, 594.827 71.699 C 591.695 78.061, 591.500 79.077, 591.500 89 C 591.500 98.923, 591.695 99.939, 594.827 106.301 C 599.111 115.002, 606.516 122.400, 614.938 126.391 C 621.375 129.441, 621.831 129.506, 638.844 129.834 C 655.278 130.151, 656.160 130.072, 655.647 128.334 C 655.349 127.325, 654.379 123.575, 653.492 120 C 652.605 116.425, 651.439 111.813, 650.901 109.750 L 649.923 106 638.711 105.984 C 625.071 105.964, 620.874 104.213, 617.250 97.034 C 614.376 91.340, 614.399 86.454, 617.325 80.907 C 621.102 73.747, 625.218 72.036, 638.711 72.016 L 649.923 72 650.910 68.250 C 651.453 66.188, 652.662 61.350, 653.598 57.500 C 654.533 53.650, 655.476 50.293, 655.694 50.039 C 655.911 49.786, 657.177 50.911, 658.508 52.539 L 660.928 55.500 660.964 92.750 L 661 130 673 130 L 685 130 685 89 L 685 48 654.750 48.067 C 633.252 48.114, 623.343 48.501, 620.500 49.402 M 716.500 49.347 C 705.034 53.141, 696.160 60.867, 690.827 71.699 C 687.695 78.061, 687.500 79.077, 687.500 89 C 687.500 98.923, 687.695 99.939, 690.827 106.301 C 695.111 115.002, 702.516 122.400, 710.938 126.391 C 717.043 129.284, 718.265 129.500, 728.500 129.500 C 738.543 129.500, 740 129.254, 745.248 126.678 C 753.518 122.618, 761.353 115.060, 765.027 107.596 C 775.402 86.523, 766.656 61.667, 745.248 51.382 C 740.445 49.074, 737.938 48.571, 730 48.322 C 724.015 48.134, 719.020 48.513, 716.500 49.347 M 298.575 74.209 C 293.927 76.922, 290 83.671, 290 88.945 C 290 94.434, 293.818 101.100, 298.500 103.787 C 301.704 105.626, 303.647 106.012, 308.263 105.727 C 324.905 104.698, 330.308 84.785, 316.702 74.627 C 312.538 71.518, 303.540 71.310, 298.575 74.209 M 719.575 74.209 C 714.927 76.922, 711 83.671, 711 88.945 C 711 94.434, 714.818 101.100, 719.500 103.787 C 724.554 106.687, 733.536 106.483, 737.702 103.373 C 743.734 98.870, 746.477 92.050, 744.961 85.327 C 743.199 77.514, 737.510 72.783, 729.263 72.273 C 724.637 71.988, 722.726 72.369, 719.575 74.209 M 17 253 L 17 326 90 326 L 163 326 163 253 L 163 180 90 180 L 17 180 17 253 M 183 253 L 183 326 256 326 L 329 326 329 253 L 329 180 256 180 L 183 180 183 253 M 657 242.427 L 657 294.906 660.454 296.545 C 662.354 297.447, 664.431 298.814, 665.070 299.584 C 666.045 300.759, 666.698 300.590, 669.145 298.531 C 672.785 295.469, 678.250 294.387, 683.287 295.731 C 686.091 296.479, 687.273 296.452, 687.587 295.632 C 687.825 295.009, 687.903 271.100, 687.760 242.500 L 687.500 190.500 672.250 190.224 L 657 189.948 657 242.427 M 665.394 202.416 C 664.602 204.478, 665.335 209.026, 666.500 209.281 C 667.050 209.401, 667.638 207.588, 667.807 205.250 C 668.106 201.120, 666.579 199.327, 665.394 202.416 M 671 205.500 C 671 207.975, 671.450 210, 672 210 C 672.550 210, 673 207.975, 673 205.500 C 673 203.025, 672.550 201, 672 201 C 671.450 201, 671 203.025, 671 205.500 M 676.394 202.416 C 675.528 204.673, 676.384 209.308, 677.750 209.756 C 678.628 210.044, 679 208.802, 679 205.583 C 679 201.200, 677.541 199.427, 676.394 202.416 M 401.929 213.367 C 391.150 216.274, 379.033 227.188, 374.897 237.715 C 371.669 245.934, 371.674 260.080, 374.909 268.317 C 378.106 276.458, 387.204 285.990, 395.830 290.238 C 402.409 293.478, 402.568 293.502, 419.643 293.847 L 436.832 294.195 434.059 283.233 C 432.533 277.204, 430.970 271.760, 430.584 271.135 C 430.129 270.400, 426.013 270, 418.891 270 C 406.388 270, 403.689 269.081, 399.302 263.329 C 396.881 260.156, 396.500 258.750, 396.500 253 C 396.500 247.250, 396.881 245.844, 399.302 242.671 C 403.724 236.873, 406.349 236, 419.352 236 L 430.802 236 433.629 224.413 L 436.455 212.825 439.227 215.928 L 442 219.032 442 256.516 L 442 294 453.500 294 L 465 294 465 253 L 465 212 435.750 212.067 C 415.913 212.113, 405.029 212.532, 401.929 213.367 M 471 226.676 L 471 241.374 473.805 238.687 C 476.232 236.362, 477.444 236, 482.805 236 L 489 236 489 265.266 L 489 294.533 500.266 305.766 C 506.462 311.945, 511.862 317, 512.266 317 C 512.670 317, 513 298.775, 513 276.500 L 513 236 521.464 236 L 529.928 236 530.214 226.561 L 530.500 217.122 542.417 234.727 C 548.971 244.410, 554.333 252.845, 554.333 253.473 C 554.333 254.100, 548.199 263.488, 540.703 274.335 L 527.072 294.056 540.786 293.778 L 554.500 293.500 580.815 254.500 C 595.288 233.050, 607.566 214.713, 608.100 213.750 C 609.008 212.113, 607.934 212, 591.446 212 L 573.822 212 576.418 215.085 C 577.854 216.792, 578.693 218.690, 578.296 219.335 C 574.840 224.946, 568.614 233.035, 567.935 232.797 C 567.471 232.634, 564.200 228, 560.668 222.500 L 554.246 212.500 512.623 212.239 L 471 211.978 471 226.676 M 665.639 212.694 C 664.352 213.982, 665.003 218, 666.500 218 C 667.424 218, 668 217.062, 668 215.559 C 668 213.050, 666.773 211.560, 665.639 212.694 M 671 215 C 671 216.650, 671.450 218, 672 218 C 672.550 218, 673 216.650, 673 215 C 673 213.350, 672.550 212, 672 212 C 671.450 212, 671 213.350, 671 215 M 676.362 213.500 C 675.646 215.364, 676.588 218, 677.969 218 C 678.536 218, 679 216.650, 679 215 C 679 211.860, 677.351 210.922, 676.362 213.500 M 665 223.500 C 665 225.056, 665.567 226, 666.500 226 C 667.433 226, 668 225.056, 668 223.500 C 668 221.944, 667.433 221, 666.500 221 C 665.567 221, 665 221.944, 665 223.500 M 671 223.500 C 671 224.875, 671.450 226, 672 226 C 672.550 226, 673 224.875, 673 223.500 C 673 222.125, 672.550 221, 672 221 C 671.450 221, 671 222.125, 671 223.500 M 676 223.500 C 676 225.056, 676.567 226, 677.500 226 C 678.433 226, 679 225.056, 679 223.500 C 679 221.944, 678.433 221, 677.500 221 C 676.567 221, 676 221.944, 676 223.500 M 665.184 231.531 C 665.358 232.923, 665.950 234.062, 666.500 234.062 C 667.050 234.062, 667.642 232.923, 667.816 231.531 C 668.042 229.727, 667.664 229, 666.500 229 C 665.336 229, 664.958 229.727, 665.184 231.531 M 671 232 C 671 233.650, 671.450 235, 672 235 C 672.550 235, 673 233.650, 673 232 C 673 230.350, 672.550 229, 672 229 C 671.450 229, 671 230.350, 671 232 M 676.362 230.500 C 675.646 232.364, 676.588 235, 677.969 235 C 678.536 235, 679 233.650, 679 232 C 679 228.860, 677.351 227.922, 676.362 230.500 M 754 234.249 C 739.880 241.799, 740.167 261.531, 754.499 268.543 L 760 271.235 760 286.240 C 760 299.464, 760.178 301.097, 761.500 300 C 762.746 298.966, 763 295.215, 763 277.878 L 763 257 760.200 257 C 756.230 257, 755 255.296, 755 249.800 C 755 243.866, 756.771 243.422, 757.193 249.250 C 757.468 253.053, 757.789 253.533, 760.250 253.816 C 762.901 254.121, 763 253.966, 763 249.483 C 763 246.245, 763.374 244.958, 764.231 245.244 C 765.031 245.510, 765.508 248.082, 765.591 252.577 C 765.790 263.349, 765.745 263.175, 768.250 262.820 C 770.216 262.540, 770.563 261.772, 771 256.731 C 771.625 249.519, 773.412 249.200, 773.759 256.238 C 774.072 262.592, 773.284 263.990, 768.879 264.891 L 765.500 265.582 765.578 280.792 C 765.620 289.161, 766.070 296.114, 766.578 296.251 C 767.097 296.391, 767.622 290.734, 767.779 283.308 C 768.038 271.042, 768.200 270.071, 770.094 269.470 C 773.094 268.518, 778.868 263.156, 780.693 259.628 C 783.034 255.099, 782.798 247.326, 780.165 242.251 C 775.397 233.062, 763.197 229.331, 754 234.249 M 690 266.567 L 690 298.133 692.668 301.631 C 694.135 303.555, 695.605 306.788, 695.935 308.815 L 696.534 312.500 702.356 312.500 L 708.178 312.500 708.465 307.940 C 708.820 302.299, 711.109 297.718, 715.017 294.830 L 718 292.624 718 263.812 L 718 235 704 235 L 690 235 690 266.567 M 665 240.500 C 665 242.056, 665.567 243, 666.500 243 C 667.433 243, 668 242.056, 668 240.500 C 668 238.944, 667.433 238, 666.500 238 C 665.567 238, 665 238.944, 665 240.500 M 671 240.500 C 671 241.875, 671.450 243, 672 243 C 672.550 243, 673 241.875, 673 240.500 C 673 239.125, 672.550 238, 672 238 C 671.450 238, 671 239.125, 671 240.500 M 676 240.500 C 676 242.056, 676.567 243, 677.500 243 C 678.433 243, 679 242.056, 679 240.500 C 679 238.944, 678.433 238, 677.500 238 C 676.567 238, 676 238.944, 676 240.500 M 696 243 C 696 245.089, 696.425 246.025, 697.250 245.750 C 697.938 245.521, 698.500 244.283, 698.500 243 C 698.500 241.717, 697.938 240.479, 697.250 240.250 C 696.425 239.975, 696 240.911, 696 243 M 701.810 240.524 C 701.522 240.811, 701.499 242.161, 701.760 243.524 C 702.106 245.334, 702.874 246, 704.617 246 C 706.598 246, 707 245.494, 707 243 C 707 240.524, 706.593 240, 704.667 240 C 703.383 240, 702.098 240.236, 701.810 240.524 M 710.667 240.667 C 709.620 241.714, 709.888 246, 711 246 C 711.550 246, 712 244.650, 712 243 C 712 239.893, 711.796 239.537, 710.667 240.667 M 665 248.500 C 665 250.056, 665.567 251, 666.500 251 C 667.433 251, 668 250.056, 668 248.500 C 668 246.944, 667.433 246, 666.500 246 C 665.567 246, 665 246.944, 665 248.500 M 671 248.500 C 671 249.875, 671.450 251, 672 251 C 672.550 251, 673 249.875, 673 248.500 C 673 247.125, 672.550 246, 672 246 C 671.450 246, 671 247.125, 671 248.500 M 676 248.500 C 676 250.056, 676.567 251, 677.500 251 C 678.433 251, 679 250.056, 679 248.500 C 679 246.944, 678.433 246, 677.500 246 C 676.567 246, 676 246.944, 676 248.500 M 696 251.500 C 696 253.056, 696.567 254, 697.500 254 C 698.433 254, 699 253.056, 699 251.500 C 699 249.944, 698.433 249, 697.500 249 C 696.567 249, 696 249.944, 696 251.500 M 702 251.500 C 702 253.500, 702.500 254, 704.500 254 C 706.500 254, 707 253.500, 707 251.500 C 707 249.500, 706.500 249, 704.500 249 C 702.500 249, 702 249.500, 702 251.500 M 710 251.500 C 710 252.875, 710.450 254, 711 254 C 711.550 254, 712 252.875, 712 251.500 C 712 250.125, 711.550 249, 711 249 C 710.450 249, 710 250.125, 710 251.500 M 620.453 252.262 C 620.187 252.955, 620.089 266.793, 620.235 283.012 L 620.500 312.500 628.250 312.792 L 636 313.084 636.004 308.792 C 636.008 304.296, 638.856 298.376, 641.506 297.359 C 642.355 297.034, 643 295.537, 643 293.893 C 643 291.474, 643.409 291, 645.500 291 C 647.056 291, 648 291.567, 648 292.500 C 648 293.500, 649 294, 651 294 L 654 294 654 272.500 L 654 251 637.469 251 C 625.085 251, 620.816 251.317, 620.453 252.262 M 733.500 252.412 C 727.804 254.943, 724 260.875, 724 267.227 C 724 271.478, 728.352 278.546, 731.950 280.138 C 734.746 281.376, 734.936 281.829, 735.209 287.896 C 735.392 291.942, 735.965 294.494, 736.750 294.754 C 737.704 295.069, 738 292.304, 738 283.083 C 738 271.929, 737.856 271, 736.122 271 C 733.363 271, 731.821 268.579, 732.182 264.815 C 732.591 260.556, 734.405 260.511, 734.813 264.750 C 735.224 269.013, 738 269.231, 738 265 C 738 263.350, 738.450 262, 739 262 C 739.550 262, 740 264.055, 740 266.566 C 740 270.955, 740.107 271.121, 742.741 270.816 C 746.468 270.386, 746.687 268.020, 743.578 261.780 C 742.160 258.935, 741 255.346, 741 253.804 C 741 251.551, 740.558 251.008, 738.750 251.039 C 737.513 251.061, 735.150 251.678, 733.500 252.412 M 665.362 255.500 C 664.593 257.503, 665.727 260.287, 666.993 259.504 C 668.318 258.685, 668.297 254, 666.969 254 C 666.401 254, 665.678 254.675, 665.362 255.500 M 671 257 C 671 258.650, 671.450 260, 672 260 C 672.550 260, 673 258.650, 673 257 C 673 255.350, 672.550 254, 672 254 C 671.450 254, 671 255.350, 671 257 M 676.362 255.500 C 675.593 257.503, 676.727 260.287, 677.993 259.504 C 679.318 258.685, 679.297 254, 677.969 254 C 677.401 254, 676.678 254.675, 676.362 255.500 M 626 259.500 C 626 261.611, 626.467 262, 629 262 C 631.533 262, 632 261.611, 632 259.500 C 632 257.389, 631.533 257, 629 257 C 626.467 257, 626 257.389, 626 259.500 M 635 259.861 C 635 262.374, 635.304 262.664, 637.500 262.245 C 639.334 261.894, 640 261.132, 640 259.383 C 640 257.508, 639.467 257, 637.500 257 C 635.416 257, 635 257.476, 635 259.861 M 643 259.500 C 643 261.500, 643.500 262, 645.500 262 C 647.500 262, 648 261.500, 648 259.500 C 648 257.500, 647.500 257, 645.500 257 C 643.500 257, 643 257.500, 643 259.500 M 696 260.083 C 696 263.909, 698.356 263.566, 698.816 259.673 C 699.041 257.779, 698.677 257, 697.566 257 C 696.483 257, 696 257.951, 696 260.083 M 701.760 259.476 C 701.171 262.559, 701.441 262.829, 704.524 262.240 C 708.017 261.572, 708.099 257, 704.617 257 C 702.874 257, 702.106 257.666, 701.760 259.476 M 710 259.500 C 710 260.875, 710.450 262, 711 262 C 711.550 262, 712 260.875, 712 259.500 C 712 258.125, 711.550 257, 711 257 C 710.450 257, 710 258.125, 710 259.500 M 665 265.500 C 665 267.056, 665.567 268, 666.500 268 C 667.433 268, 668 267.056, 668 265.500 C 668 263.944, 667.433 263, 666.500 263 C 665.567 263, 665 263.944, 665 265.500 M 671 265.500 C 671 266.875, 671.450 268, 672 268 C 672.550 268, 673 266.875, 673 265.500 C 673 264.125, 672.550 263, 672 263 C 671.450 263, 671 264.125, 671 265.500 M 676 265.500 C 676 267.056, 676.567 268, 677.500 268 C 678.433 268, 679 267.056, 679 265.500 C 679 263.944, 678.433 263, 677.500 263 C 676.567 263, 676 263.944, 676 265.500 M 626.361 266.501 C 625.390 269.031, 626.815 271.165, 629.246 270.820 C 632.448 270.365, 632.425 265.841, 629.218 265.351 C 627.860 265.144, 626.703 265.609, 626.361 266.501 M 635 267.930 C 635 270.559, 635.369 271, 637.566 271 C 639.776 271, 640.089 270.618, 639.816 268.250 C 639.590 266.281, 638.861 265.409, 637.250 265.180 C 635.336 264.909, 635 265.319, 635 267.930 M 643 268 C 643 270.533, 643.389 271, 645.500 271 C 647.611 271, 648 270.533, 648 268 C 648 265.467, 647.611 265, 645.500 265 C 643.389 265, 643 265.467, 643 268 M 696.683 265.650 C 696.308 266.026, 696 267.421, 696 268.750 C 696 271.518, 698.300 271.365, 698.844 268.561 C 699.227 266.585, 697.745 264.588, 696.683 265.650 M 702 268.006 C 702 270.554, 702.383 271, 704.566 271 C 706.757 271, 707.086 270.611, 706.816 268.344 C 706.594 266.480, 705.829 265.587, 704.250 265.350 C 702.343 265.064, 702 265.468, 702 268.006 M 710 268 C 710 269.650, 710.450 271, 711 271 C 711.550 271, 712 269.650, 712 268 C 712 266.350, 711.550 265, 711 265 C 710.450 265, 710 266.350, 710 268 M 748 270.465 C 748 272.198, 744.975 274, 742.066 274 C 740.108 274, 740 274.555, 740 284.573 C 740 294.104, 740.173 295.114, 741.750 294.813 C 743.166 294.543, 743.555 293.236, 743.791 287.966 C 744.066 281.780, 744.234 281.384, 747.130 280.103 C 749.713 278.959, 753.984 273.863, 753.996 271.911 C 754 271.368, 749.491 269, 748.453 269 C 748.204 269, 748 269.659, 748 270.465 M 665 273.500 C 665 275.056, 665.567 276, 666.500 276 C 667.433 276, 668 275.056, 668 273.500 C 668 271.944, 667.433 271, 666.500 271 C 665.567 271, 665 271.944, 665 273.500 M 671 273.500 C 671 274.875, 671.450 276, 672 276 C 672.550 276, 673 274.875, 673 273.500 C 673 272.125, 672.550 271, 672 271 C 671.450 271, 671 272.125, 671 273.500 M 676 273.500 C 676 275.056, 676.567 276, 677.500 276 C 678.433 276, 679 275.056, 679 273.500 C 679 271.944, 678.433 271, 677.500 271 C 676.567 271, 676 271.944, 676 273.500 M 626 276.500 C 626 278.611, 626.467 279, 629 279 C 631.533 279, 632 278.611, 632 276.500 C 632 274.389, 631.533 274, 629 274 C 626.467 274, 626 274.389, 626 276.500 M 635 276.500 C 635 278.500, 635.500 279, 637.500 279 C 639.500 279, 640 278.500, 640 276.500 C 640 274.500, 639.500 274, 637.500 274 C 635.500 274, 635 274.500, 635 276.500 M 643 276.500 C 643 278.500, 643.500 279, 645.500 279 C 647.500 279, 648 278.500, 648 276.500 C 648 274.500, 647.500 274, 645.500 274 C 643.500 274, 643 274.500, 643 276.500 M 696 275 C 696 275.550, 696.675 276, 697.500 276 C 698.325 276, 699 275.550, 699 275 C 699 274.450, 698.325 274, 697.500 274 C 696.675 274, 696 274.450, 696 275 M 702 275 C 702 275.550, 703.125 276, 704.500 276 C 705.875 276, 707 275.550, 707 275 C 707 274.450, 705.875 274, 704.500 274 C 703.125 274, 702 274.450, 702 275 M 710 275 C 710 275.550, 710.450 276, 711 276 C 711.550 276, 712 275.550, 712 275 C 712 274.450, 711.550 274, 711 274 C 710.450 274, 710 274.450, 710 275 M 665.639 279.694 C 664.352 280.982, 665.003 285, 666.500 285 C 667.424 285, 668 284.062, 668 282.559 C 668 280.050, 666.773 278.560, 665.639 279.694 M 671 282 C 671 283.650, 671.450 285, 672 285 C 672.550 285, 673 283.650, 673 282 C 673 280.350, 672.550 279, 672 279 C 671.450 279, 671 280.350, 671 282 M 676.386 280.437 C 675.650 282.354, 676.568 285, 677.969 285 C 679.297 285, 679.318 280.315, 677.993 279.496 C 677.439 279.153, 676.716 279.577, 676.386 280.437 M 696.417 279.917 C 694.907 281.426, 696.995 282, 704 282 C 709.733 282, 712 281.646, 712 280.750 C 712 279.860, 709.817 279.500, 704.417 279.500 C 700.246 279.500, 696.646 279.688, 696.417 279.917 M 626 284.500 C 626 286.611, 626.467 287, 629 287 C 631.533 287, 632 286.611, 632 284.500 C 632 282.389, 631.533 282, 629 282 C 626.467 282, 626 282.389, 626 284.500 M 635 284.500 C 635 286.500, 635.500 287, 637.500 287 C 639.500 287, 640 286.500, 640 284.500 C 640 282.500, 639.500 282, 637.500 282 C 635.500 282, 635 282.500, 635 284.500 M 643 284.500 C 643 286.500, 643.500 287, 645.500 287 C 647.500 287, 648 286.500, 648 284.500 C 648 282.500, 647.500 282, 645.500 282 C 643.500 282, 643 282.500, 643 284.500 M 696 286 C 696 286.583, 699.333 287, 704 287 C 708.667 287, 712 286.583, 712 286 C 712 285.417, 708.667 285, 704 285 C 699.333 285, 696 285.417, 696 286 M 635 293.139 C 635 295.524, 635.416 296, 637.500 296 C 639.467 296, 640 295.492, 640 293.617 C 640 291.868, 639.334 291.106, 637.500 290.755 C 635.304 290.336, 635 290.626, 635 293.139 M 626 293.500 C 626 295.611, 626.467 296, 629 296 C 631.533 296, 632 295.611, 632 293.500 C 632 291.389, 631.533 291, 629 291 C 626.467 291, 626 291.389, 626 293.500 M 696 292 C 696 292.583, 699.333 293, 704 293 C 708.667 293, 712 292.583, 712 292 C 712 291.417, 708.667 291, 704 291 C 699.333 291, 696 291.417, 696 292 M 718.558 295.953 C 714.474 298.645, 711.011 304.741, 711.005 309.250 L 711 313 749.441 313 C 770.584 313, 788.067 312.663, 788.294 312.250 C 789.230 310.547, 786.796 305.038, 783.825 302.133 C 778.275 296.707, 769.118 296.728, 763.665 302.181 L 760.632 305.214 758.712 302.579 C 754.841 297.265, 746.617 295.386, 740.711 298.467 C 738.161 299.797, 737.751 299.751, 735.921 297.921 C 731.629 293.629, 723.484 292.705, 718.558 295.953 M 645.299 298.624 C 641.779 300.360, 639.666 303.080, 638.659 307.171 C 637.198 313.106, 636.702 313, 666.048 313 C 682.035 313, 693.121 312.614, 693.473 312.044 C 694.397 310.549, 691.382 304.258, 688.429 301.522 C 683.281 296.751, 674.369 296.985, 668.966 302.032 L 665.788 305 663.806 302.480 C 659.590 297.120, 651.687 295.474, 645.299 298.624" stroke="none" fill="black" fill-rule="evenodd"/>
</svg>