<svg xmlns="http://www.w3.org/2000/svg" width="1080" height="530" viewBox="0 0 1080 530" version="1.1">
	<path d="M 123.500 60.109 C 80.819 66.259, 54.962 94.119, 54.922 134 C 54.899 156.654, 60.275 170.805, 73.433 182.721 C 91.785 199.342, 115.528 205.138, 152.535 202.031 C 160.719 201.344, 168.311 200.451, 169.405 200.046 C 171.423 199.299, 171.604 198.442, 175.558 170.899 L 176.218 166.297 165.859 168.650 C 153.042 171.561, 137.544 172.619, 129.606 171.124 C 107.557 166.973, 95.029 148.902, 99.003 126.983 C 103.365 102.922, 124.194 88.369, 151.493 90.305 C 158.423 90.797, 171.893 93.049, 177.193 94.602 C 178.750 95.059, 178.839 93.798, 178.306 78.799 C 177.987 69.835, 177.603 62.353, 177.453 62.173 C 177.302 61.993, 171.176 61.210, 163.839 60.434 C 149.246 58.891, 132.868 58.759, 123.500 60.109 M 844 71 L 844 83 863.481 83 C 886.135 83, 883.694 84.674, 884.251 68.750 L 884.592 59 864.296 59 L 844 59 844 71 M 241.763 94.968 C 223.083 98.369, 205.993 109.404, 198.728 122.756 C 195.104 129.417, 191.996 141.764, 192.017 149.410 C 192.090 174.952, 206.678 193.602, 232.085 200.636 C 241.079 203.126, 263.913 203.122, 273 200.628 C 293.558 194.988, 308.004 180.813, 312.460 161.907 C 314.410 153.634, 314.414 140.011, 312.469 132.542 C 307.848 114.802, 294.013 101.648, 274.500 96.443 C 267.498 94.575, 248.599 93.724, 241.763 94.968 M 392.024 95.603 C 385.061 97.474, 379.130 100.949, 375.137 105.497 L 372 109.070 372 103.035 L 372 97 353.139 97 L 334.277 97 333.603 114.250 C 332.611 139.602, 330.132 187.620, 329.473 194.250 L 328.901 200 349.450 200 L 370 200 370.001 192.250 C 370.002 179.338, 371.964 147.857, 373.133 142 C 375.917 128.057, 384.860 121.169, 392.440 127.131 C 396.416 130.259, 397.149 133.238, 397.083 146 C 397.021 157.948, 395.402 188.347, 394.434 195.750 L 393.877 200 414.280 200 L 434.682 200 435.350 177.009 C 436.351 142.536, 438.124 133.439, 444.962 127.686 C 448.559 124.659, 452.628 124.239, 456.909 126.453 C 461.307 128.727, 462.363 132.707, 462.196 146.373 C 462.038 159.283, 460.276 192.658, 459.509 197.250 L 459.050 200 479.525 200 L 500 200 500.017 191.250 C 500.026 186.438, 500.691 171.250, 501.495 157.500 C 503.270 127.142, 503.357 116.365, 501.862 111.899 C 497.837 99.879, 483.458 92.976, 465.135 94.268 C 454.260 95.035, 446.708 98.162, 440.335 104.535 L 435.108 109.762 432.545 105.889 C 431.136 103.760, 428.299 100.908, 426.241 99.552 C 418.313 94.330, 403.238 92.590, 392.024 95.603 M 566.500 94.647 C 548.382 97.560, 535.529 105.638, 527.750 119 C 520.429 131.577, 517.410 149.969, 520.379 163.906 C 524.680 184.089, 535.928 195.804, 555.686 200.681 C 567.813 203.674, 610.314 202.514, 615.940 199.037 C 616.815 198.496, 622.301 170.941, 621.648 170.371 C 621.566 170.300, 616.331 171.550, 610.014 173.149 C 589.359 178.376, 576.245 177.955, 566.937 171.768 C 562.580 168.872, 559 161.890, 559 156.288 L 559 152 594.375 152 L 629.750 152 630.375 148.875 C 631.444 143.528, 631.040 131.738, 629.601 126.336 C 627.443 118.231, 624.030 112.319, 618.478 107.068 C 609.141 98.237, 599.904 95.107, 581.500 94.537 C 574.900 94.332, 568.150 94.382, 566.500 94.647 M 703.396 95.366 C 698.583 96.934, 690.442 102.319, 688.722 105.074 C 686.694 108.320, 685.790 107.238, 686.153 101.999 L 686.500 96.999 667.408 96.999 L 648.317 97 647.660 126.750 C 647.299 143.113, 646.341 164.825, 645.530 175 C 644.720 185.175, 644.044 194.963, 644.028 196.750 L 644 200 664 200 L 684 200 684.016 186.250 C 684.036 168.586, 685.515 150.953, 687.549 144.127 C 689.816 136.520, 696.693 129.753, 703.917 128.020 C 708.891 126.827, 716.410 127.048, 720.149 128.497 C 721.654 129.081, 721.752 127.665, 721.267 112.318 C 720.975 103.068, 720.553 95.295, 720.330 95.045 C 719.331 93.927, 707.103 94.159, 703.396 95.366 M 770.467 95.458 C 750.046 99.169, 736.068 113.807, 731.553 136.208 C 729.571 146.043, 729.583 155.064, 731.591 164.792 C 733.804 175.516, 737.396 182.527, 744.137 189.284 C 754.809 199.980, 767.110 203.587, 789.500 202.586 C 801.789 202.036, 812.614 200.720, 813.690 199.643 C 814.211 199.122, 819.110 169.777, 818.738 169.405 C 818.564 169.231, 816.421 169.778, 813.975 170.621 C 806.160 173.313, 793.817 174.501, 787.753 173.144 C 776.073 170.530, 771.777 164.765, 771.182 150.903 C 770.872 143.703, 771.173 141.469, 773.033 137.146 C 777.382 127.035, 787.011 122.190, 800.452 123.348 C 806.883 123.902, 815.705 125.774, 820.331 127.567 C 822.311 128.334, 822.309 129.331, 820.395 104.339 C 819.762 96.079, 820.643 96.668, 806.467 95.044 C 794.666 93.692, 779.210 93.870, 770.467 95.458 M 948.763 94.968 C 930.083 98.369, 912.993 109.404, 905.728 122.756 C 902.104 129.417, 898.996 141.764, 899.017 149.410 C 899.090 174.952, 913.678 193.602, 939.085 200.636 C 948.079 203.126, 970.913 203.122, 980 200.628 C 1000.558 194.988, 1015.004 180.813, 1019.460 161.907 C 1021.410 153.634, 1021.414 140.011, 1019.469 132.542 C 1014.848 114.802, 1001.013 101.648, 981.500 96.443 C 974.498 94.575, 955.599 93.724, 948.763 94.968 M 842.647 110.250 C 842.340 117.537, 841.604 134.929, 841.012 148.899 C 839.996 172.871, 838.550 192.714, 837.452 197.750 L 836.962 200 858.981 200 L 881 200 881.026 173.250 C 881.050 149.024, 881.659 133.214, 883.606 106.250 L 884.274 97 863.739 97 L 843.205 97 842.647 110.250 M 570.223 120.119 C 565.647 122.384, 561.525 128.124, 560.386 133.819 L 559.750 137 576.375 137 L 593 137 593 132.960 C 593 121.029, 581.492 114.540, 570.223 120.119 M 247.791 123.988 C 243.123 125.396, 239.502 128.663, 236.497 134.176 C 232.747 141.061, 231.741 154.415, 234.441 161.485 C 238.881 173.112, 253.146 177.493, 263.308 170.351 C 273.649 163.083, 277.062 141.918, 269.684 130.812 C 265.550 124.588, 255.840 121.562, 247.791 123.988 M 954.791 123.988 C 950.123 125.396, 946.502 128.663, 943.497 134.176 C 939.747 141.061, 938.741 154.415, 941.441 161.485 C 945.881 173.112, 960.146 177.493, 970.308 170.351 C 980.649 163.083, 984.062 141.918, 976.684 130.812 C 972.550 124.588, 962.840 121.562, 954.791 123.988 M 763.667 225.667 C 763.300 226.033, 763 272.827, 763 329.652 L 763 432.971 768.874 435.936 C 772.104 437.567, 776.120 440.274, 777.797 441.951 C 781.414 445.568, 782.093 445.661, 784.595 442.891 C 785.643 441.731, 789.200 439.382, 792.500 437.671 C 797.976 434.832, 799.329 434.560, 808 434.554 C 815.158 434.549, 818.301 434.979, 820.750 436.299 C 822.538 437.263, 824.004 437.702, 824.009 437.276 C 824.017 436.628, 824.010 228.025, 824.003 225.750 C 823.999 224.823, 764.592 224.741, 763.667 225.667 M 780.709 247.624 C 780.319 248.014, 780 251.888, 780 256.233 L 780 264.133 782.588 263.816 C 785.121 263.507, 785.177 263.331, 785.261 255.500 C 785.339 248.278, 785.157 247.472, 783.383 247.208 C 782.302 247.047, 781.099 247.235, 780.709 247.624 M 791.709 247.624 C 791.319 248.014, 791 251.858, 791 256.167 L 791 264 794.040 264 L 797.081 264 796.790 255.750 C 796.529 248.320, 796.297 247.471, 794.459 247.208 C 793.336 247.047, 792.099 247.235, 791.709 247.624 M 802.709 247.624 C 802.319 248.014, 802 251.858, 802 256.167 L 802 264 805.040 264 L 808.081 264 807.790 255.750 C 807.529 248.320, 807.297 247.471, 805.459 247.208 C 804.336 247.047, 803.099 247.235, 802.709 247.624 M 780.198 275.250 C 780.475 280.058, 780.704 280.500, 782.927 280.500 C 785.178 280.500, 785.360 280.120, 785.430 275.250 C 785.504 270.146, 785.428 270, 782.701 270 C 779.945 270, 779.901 270.092, 780.198 275.250 M 791.198 275.250 C 791.477 280.103, 791.689 280.500, 794 280.500 C 796.311 280.500, 796.523 280.103, 796.802 275.250 L 797.105 270 794 270 L 790.895 270 791.198 275.250 M 802.198 275.250 C 802.477 280.103, 802.689 280.500, 805 280.500 C 807.311 280.500, 807.523 280.103, 807.802 275.250 L 808.105 270 805 270 L 801.895 270 802.198 275.250 M 314.500 280.109 C 271.819 286.259, 245.962 314.119, 245.922 354 C 245.899 376.654, 251.275 390.805, 264.433 402.721 C 282.785 419.342, 306.528 425.138, 343.535 422.031 C 351.719 421.344, 359.311 420.451, 360.405 420.046 C 362.423 419.299, 362.604 418.442, 366.558 390.899 L 367.218 386.297 356.859 388.650 C 344.042 391.561, 328.544 392.619, 320.606 391.124 C 298.557 386.973, 286.029 368.902, 290.003 346.983 C 294.365 322.922, 315.194 308.369, 342.493 310.305 C 349.423 310.797, 362.893 313.049, 368.193 314.602 C 369.750 315.059, 369.839 313.798, 369.306 298.799 C 368.987 289.835, 368.603 282.353, 368.453 282.173 C 368.302 281.993, 362.176 281.210, 354.839 280.434 C 340.246 278.891, 323.868 278.759, 314.500 280.109 M 392 291 L 392 303 411.481 303 C 434.135 303, 431.694 304.674, 432.251 288.750 L 432.592 279 412.296 279 L 392 279 392 291 M 780.524 286.810 C 780.236 287.098, 780 289.508, 780 292.167 C 780 296.773, 780.129 297, 782.750 297 C 785.378 297, 785.500 296.782, 785.500 292.069 C 785.500 287.764, 785.217 287.083, 783.274 286.712 C 782.049 286.478, 780.811 286.522, 780.524 286.810 M 793.250 286.768 C 791.271 287.094, 791 287.733, 791 292.070 C 791 296.881, 791.072 297, 794 297 C 796.929 297, 797 296.882, 797 292.059 C 797 286.703, 796.649 286.208, 793.250 286.768 M 802 292 C 802 296.889, 802.067 297, 805 297 C 807.933 297, 808 296.889, 808 292 C 808 287.111, 807.933 287, 805 287 C 802.067 287, 802 287.111, 802 292 M 500.895 290.439 C 500.653 290.680, 492.901 292.433, 483.667 294.333 C 474.432 296.234, 466.694 297.972, 466.470 298.196 C 466.247 298.420, 465.712 302.855, 465.282 308.052 L 464.500 317.500 456.250 317.790 C 451.712 317.950, 447.955 318.400, 447.900 318.790 C 447.846 319.181, 447.508 325.238, 447.150 332.251 L 446.500 345.003 454.250 345.001 C 461.184 345, 462 345.199, 462 346.891 C 462 347.930, 461.296 359.868, 460.435 373.419 C 458.757 399.835, 459.132 405.399, 463.022 411.796 C 468.966 421.570, 487.158 425.320, 510.358 421.554 C 515.230 420.764, 519.350 419.978, 519.512 419.808 C 519.957 419.345, 524.976 391.643, 524.671 391.338 C 524.526 391.192, 522.219 391.732, 519.544 392.537 C 512.241 394.735, 507.661 394.427, 504.189 391.506 C 500.148 388.105, 499.736 384.902, 500.572 363.366 L 501.284 345 513.088 345 L 524.892 345 525.196 331.498 L 525.500 317.997 514 318 L 502.500 318.003 502.803 304.002 C 503.067 291.754, 502.637 288.696, 500.895 290.439 M 780 308.500 C 780 313.700, 780.136 314, 782.500 314 C 784.741 314, 785 313.595, 785 310.082 C 785 307.927, 785.273 305.452, 785.607 304.582 C 786.080 303.349, 785.529 303, 783.107 303 C 780.008 303, 780 303.013, 780 308.500 M 791 308.566 C 791 314.049, 791.041 314.128, 793.750 313.816 C 796.315 313.521, 796.520 313.147, 796.802 308.250 L 797.105 303 794.052 303 C 791.015 303, 791 303.027, 791 308.566 M 802.667 303.667 C 802.300 304.033, 802 306.538, 802 309.233 C 802 313.988, 802.081 314.124, 804.750 313.816 C 807.315 313.521, 807.520 313.147, 807.802 308.250 C 808.087 303.299, 807.968 303, 805.719 303 C 804.407 303, 803.033 303.300, 802.667 303.667 M 968.780 309.030 C 957.458 310.938, 946.469 318.801, 941.320 328.679 C 937.028 336.913, 935.608 342.978, 936.338 349.962 C 938.045 366.292, 947.685 378.518, 963.147 383.961 L 968.500 385.845 969 415.090 C 969.334 434.603, 969.857 444.454, 970.573 444.692 C 971.163 444.888, 972.406 444.209, 973.334 443.183 C 974.870 441.486, 974.999 437.591, 974.761 399.909 L 974.500 358.500 968.798 358.202 C 963.842 357.942, 962.758 357.501, 960.511 354.831 C 958.104 351.971, 957.946 351.162, 958.213 343.129 C 958.494 334.668, 958.549 334.500, 961 334.500 C 963.455 334.500, 963.494 334.621, 963.146 341.267 C 962.666 350.457, 964.391 353.235, 970.309 352.805 L 974.500 352.500 975 343.500 C 975.466 335.105, 975.651 334.479, 977.750 334.180 L 980 333.861 980 351.430 L 980 369 984.378 369 C 990.636 369, 991.390 367.620, 991.845 355.317 C 992.214 345.343, 992.323 344.904, 994.365 345.196 C 996.365 345.481, 996.518 346.151, 996.785 355.775 C 997.003 363.615, 996.689 366.854, 995.458 369.447 C 993.582 373.400, 992.285 374.112, 985.500 374.911 L 980.500 375.500 980.235 405.935 C 980.089 422.674, 980.314 436.690, 980.735 437.081 C 981.156 437.471, 982.513 437.403, 983.750 436.928 L 986 436.064 986 410.587 L 986 385.109 992.992 381.435 C 1001.361 377.037, 1006.183 371.970, 1010.231 363.319 C 1021.105 340.083, 1006.564 313.218, 980.855 309.046 C 977.360 308.479, 974.275 308.065, 974 308.125 C 973.725 308.186, 971.376 308.593, 968.780 309.030 M 830 377.575 L 830 441.182 833.501 445.272 C 838.225 450.791, 841.997 458.620, 842.015 462.946 C 842.041 468.886, 842.586 469.158, 854.357 469.115 C 860.210 469.094, 865.366 469.060, 865.814 469.038 C 866.261 469.017, 866.437 466.361, 866.203 463.136 C 865.373 451.649, 870.889 440.100, 880.652 432.888 L 886.016 428.925 885.758 371.712 L 885.500 314.500 857.750 314.234 L 830 313.968 830 377.575 M 390.647 330.250 C 390.340 337.538, 389.604 354.929, 389.012 368.899 C 387.996 392.871, 386.550 412.714, 385.452 417.750 L 384.962 420 406.981 420 L 429 420 429.026 393.250 C 429.050 369.024, 429.659 353.214, 431.606 326.250 L 432.274 317 411.739 317 L 391.205 317 390.647 330.250 M 532.252 318.229 C 532.517 318.928, 540.470 342.529, 549.926 370.677 L 567.119 421.853 564.998 426.784 C 562.397 432.829, 556.805 438.350, 551.601 440.010 C 546.774 441.549, 538.556 440.783, 530.651 438.057 C 526.184 436.516, 524.926 436.364, 525.329 437.414 C 525.619 438.171, 526.645 444.892, 527.608 452.350 L 529.360 465.911 534.430 467.013 C 542.230 468.707, 558.876 469.352, 565 468.197 C 578.808 465.593, 588.037 460.122, 594.224 450.871 C 596.273 447.809, 606.012 426.672, 615.868 403.901 C 625.724 381.131, 637.490 354.175, 642.015 344 C 646.541 333.825, 651.073 323.587, 652.086 321.250 L 653.929 317 634.190 317 L 614.451 317 607.096 336.250 C 603.051 346.837, 597.386 362.611, 594.507 371.302 L 589.273 387.103 587.652 378.302 C 586.760 373.461, 582.950 357.800, 579.184 343.500 L 572.338 317.500 552.054 317.229 C 535.975 317.014, 531.870 317.221, 532.252 318.229 M 780.195 325.178 C 780.477 330.095, 780.689 330.500, 782.981 330.500 C 785.304 330.500, 785.456 330.183, 785.365 325.500 C 785.274 320.849, 785.080 320.478, 782.579 320.178 C 779.926 319.861, 779.895 319.926, 780.195 325.178 M 791.198 325.250 C 791.477 330.103, 791.689 330.500, 794 330.500 C 796.311 330.500, 796.523 330.103, 796.802 325.250 L 797.105 320 794 320 L 790.895 320 791.198 325.250 M 802.198 325.250 C 802.477 330.103, 802.689 330.500, 805 330.500 C 807.311 330.500, 807.523 330.103, 807.802 325.250 L 808.105 320 805 320 L 801.895 320 802.198 325.250 M 841.667 325.667 C 841.300 326.033, 841 328.508, 841 331.167 C 841 335.870, 841.080 336, 844 336 C 846.970 336, 847 335.944, 847 330.500 C 847 325.405, 846.828 325, 844.667 325 C 843.383 325, 842.033 325.300, 841.667 325.667 M 852.712 325.622 C 852.320 326.013, 852 328.508, 852 331.167 L 852 336 857.750 336.001 L 863.500 336.001 863.375 330.751 L 863.249 325.500 858.336 325.205 C 855.634 325.043, 853.103 325.230, 852.712 325.622 M 869.709 325.624 C 869.319 326.014, 869 328.508, 869 331.167 C 869 335.781, 869.126 336, 871.769 336 C 874.464 336, 874.533 335.860, 874.369 330.750 C 874.230 326.444, 873.860 325.447, 872.309 325.208 C 871.269 325.047, 870.099 325.235, 869.709 325.624 M 780 341.434 C 780 346.849, 780.075 347, 782.769 347 C 785.464 347, 785.533 346.860, 785.369 341.750 C 785.213 336.895, 785.005 336.476, 782.600 336.184 C 780.073 335.876, 780 336.024, 780 341.434 M 791.709 336.624 C 791.319 337.014, 791 339.508, 791 342.167 C 791 346.889, 791.070 347, 794.052 347 L 797.105 347 796.802 341.750 C 796.549 337.347, 796.171 336.453, 794.459 336.208 C 793.336 336.047, 792.099 336.235, 791.709 336.624 M 802.667 336.667 C 802.300 337.033, 802 339.508, 802 342.167 C 802 346.870, 802.080 347, 805 347 C 807.970 347, 808 346.944, 808 341.500 C 808 336.405, 807.828 336, 805.667 336 C 804.383 336, 803.033 336.300, 802.667 336.667 M 841.198 347.250 C 841.480 352.147, 841.685 352.521, 844.250 352.816 C 846.959 353.128, 847 353.049, 847 347.566 C 847 342.027, 846.985 342, 843.948 342 L 840.895 342 841.198 347.250 M 852.198 347.250 L 852.500 352.500 857.750 352.802 L 863 353.105 863 347.552 L 863 342 857.448 342 L 851.895 342 852.198 347.250 M 869.198 347.250 C 869.461 351.824, 869.790 352.541, 871.750 352.820 C 873.852 353.118, 874 352.773, 874 347.570 C 874 342.265, 873.879 342, 871.448 342 C 868.997 342, 868.908 342.209, 869.198 347.250 M 691.495 347.758 C 690.842 348.240, 690.493 369.474, 690.495 408.500 L 690.500 468.500 705.352 469 C 713.521 469.275, 720.558 469.275, 720.991 469 C 721.423 468.725, 721.604 466.250, 721.394 463.500 C 720.728 454.789, 723.320 448.328, 730.167 441.633 C 736.131 435.801, 736.165 435.736, 735.833 430.633 L 735.500 425.500 741 425.500 L 746.500 425.500 746.809 429.234 L 747.119 432.968 752.309 432.658 L 757.500 432.349 757.500 389.925 L 757.500 347.500 725 347.258 C 707.125 347.124, 692.048 347.349, 691.495 347.758 M 916.450 349.389 C 906.191 354.105, 900.066 361.800, 897.980 372.590 C 895.345 386.224, 902.938 400.147, 916.250 406.093 L 919 407.321 919 419.250 C 919 430.398, 919.147 431.302, 921.250 433.056 C 922.487 434.089, 923.837 434.948, 924.250 434.967 C 924.663 434.985, 925 423.975, 925 410.500 L 925 386 921.155 386 C 915.223 386, 913.845 383.794, 914.204 374.870 C 914.469 368.265, 914.708 367.500, 916.500 367.500 C 918.244 367.500, 918.564 368.333, 919 374 C 919.472 380.133, 919.641 380.500, 922 380.500 C 924.359 380.500, 924.528 380.133, 925 374 C 925.436 368.333, 925.756 367.500, 927.500 367.500 C 929.335 367.500, 929.524 368.263, 929.788 376.750 L 930.075 386 934.502 386 C 937.819 386, 939.183 385.526, 939.940 384.111 C 941.996 380.270, 941.399 376.579, 937.821 371 C 933.772 364.688, 932.006 359.835, 931.122 352.598 L 930.500 347.500 926 347.283 C 923.029 347.140, 919.783 347.856, 916.450 349.389 M 780 358.500 C 780 364.040, 780.045 364.128, 782.719 363.816 C 785.274 363.519, 785.439 363.197, 785.439 358.500 C 785.439 353.803, 785.274 353.481, 782.719 353.184 C 780.045 352.872, 780 352.960, 780 358.500 M 791.195 358.178 C 791.477 363.107, 791.685 363.500, 794 363.500 C 796.333 363.500, 796.500 363.167, 796.500 358.500 C 796.500 353.765, 796.351 353.483, 793.695 353.178 C 790.901 352.858, 790.892 352.877, 791.195 358.178 M 802.195 358.178 C 802.477 363.107, 802.685 363.500, 805 363.500 C 807.333 363.500, 807.500 363.167, 807.500 358.500 C 807.500 353.765, 807.351 353.483, 804.695 353.178 C 801.901 352.858, 801.892 352.877, 802.195 358.178 M 702.406 359.386 C 702.113 360.148, 702.015 362.735, 702.187 365.136 L 702.500 369.500 707.500 369.500 L 712.500 369.500 712.800 363.750 L 713.100 358 708.019 358 C 704.611 358, 702.762 358.456, 702.406 359.386 M 719.427 359.330 C 719.123 360.123, 719.015 362.735, 719.187 365.136 L 719.500 369.500 724.500 369.500 L 729.500 369.500 729.500 364 L 729.500 358.500 724.740 358.195 C 721.305 357.975, 719.826 358.291, 719.427 359.330 M 736.198 363.686 C 736.533 370.122, 737.305 370.728, 743.650 369.538 L 747.101 368.890 746.800 363.695 L 746.500 358.500 741.198 358.196 L 735.897 357.892 736.198 363.686 M 841.432 359.315 C 841.125 360.116, 841.015 362.735, 841.187 365.136 C 841.467 369.041, 841.763 369.500, 844 369.500 C 846.364 369.500, 846.500 369.200, 846.500 364 C 846.500 359.054, 846.273 358.468, 844.246 358.180 C 842.954 357.997, 841.752 358.482, 841.432 359.315 M 852.406 359.386 C 852.113 360.148, 852.015 362.735, 852.187 365.136 L 852.500 369.500 857.750 369.500 C 860.638 369.500, 863 369.163, 863 368.750 C 863 368.337, 863 365.750, 863 363 L 863 358 857.969 358 C 854.603 358, 852.761 358.459, 852.406 359.386 M 869.709 358.624 C 868.458 359.876, 868.912 368.804, 870.250 369.254 C 873.458 370.333, 874.501 368.930, 874.376 363.700 C 874.272 359.397, 873.921 358.450, 872.334 358.208 C 871.280 358.047, 870.099 358.235, 869.709 358.624 M 780.432 370.315 C 780.125 371.116, 780.015 373.735, 780.187 376.136 C 780.465 380.015, 780.772 380.500, 782.950 380.500 C 785.253 380.500, 785.400 380.169, 785.404 375 C 785.407 370.089, 785.171 369.466, 783.199 369.180 C 781.948 368.998, 780.749 369.491, 780.432 370.315 M 791.432 370.315 C 791.125 371.116, 791.015 373.735, 791.187 376.136 C 791.467 380.041, 791.763 380.500, 794 380.500 C 796.364 380.500, 796.500 380.200, 796.500 375 C 796.500 370.054, 796.273 369.468, 794.246 369.180 C 792.954 368.997, 791.752 369.482, 791.432 370.315 M 802.432 370.315 C 802.125 371.116, 802.015 373.735, 802.187 376.136 C 802.467 380.041, 802.763 380.500, 805 380.500 C 807.364 380.500, 807.500 380.200, 807.500 375 C 807.500 370.054, 807.273 369.468, 805.246 369.180 C 803.954 368.997, 802.752 369.482, 802.432 370.315 M 702.402 376.395 C 702.108 377.162, 702.009 379.524, 702.183 381.645 L 702.500 385.500 707.750 385.802 L 713 386.105 713 380.552 L 713 375 707.969 375 C 704.587 375, 702.762 375.457, 702.402 376.395 M 719 380.500 L 719 386 724.500 386 L 730 386 730 380.500 L 730 375 724.500 375 L 719 375 719 380.500 M 735.844 375.969 C 735.648 376.555, 735.651 379.074, 735.849 381.566 L 736.209 386.097 741.355 385.799 L 746.500 385.500 746.500 380.500 L 746.500 375.500 741.350 375.201 C 738.330 375.026, 736.052 375.344, 735.844 375.969 M 841.667 375.667 C 841.300 376.033, 841 378.508, 841 381.167 C 841 385.870, 841.080 386, 844 386 C 846.970 386, 847 385.944, 847 380.500 C 847 375.405, 846.828 375, 844.667 375 C 843.383 375, 842.033 375.300, 841.667 375.667 M 852.402 376.395 C 852.108 377.162, 852.009 379.524, 852.183 381.645 L 852.500 385.500 857.750 385.802 L 863 386.105 863 380.552 L 863 375 857.969 375 C 854.587 375, 852.762 375.457, 852.402 376.395 M 869.667 375.667 C 869.300 376.033, 869 378.508, 869 381.167 C 869 385.656, 869.178 386, 871.500 386 C 873.864 386, 874 385.700, 874 380.500 C 874 375.833, 873.722 375, 872.167 375 C 871.158 375, 870.033 375.300, 869.667 375.667 M 945.978 383.750 C 945.922 388.108, 940.303 392, 934.066 392 L 930 392 930 412.941 C 930 424.459, 930.337 434.081, 930.750 434.324 C 931.163 434.566, 932.513 434.383, 933.750 433.915 C 935.918 433.096, 936 432.608, 936 420.579 L 936 408.094 940.250 406.205 C 945.928 403.682, 950.728 399.498, 954.168 394.074 C 957.251 389.213, 957.728 387, 955.694 387 C 954.976 387, 952.864 385.875, 951 384.500 C 946.991 381.542, 946.008 381.395, 945.978 383.750 M 780 391.500 C 780 396.998, 780.063 397.125, 782.634 396.816 C 785.069 396.524, 785.275 396.123, 785.370 391.500 C 785.467 386.766, 785.326 386.483, 782.736 386.184 C 780.041 385.872, 780 385.952, 780 391.500 M 791.709 386.624 C 791.319 387.014, 791 389.538, 791 392.233 C 791 396.988, 791.081 397.124, 793.750 396.816 C 796.341 396.518, 796.500 396.211, 796.500 391.500 C 796.500 387.228, 796.203 386.457, 794.459 386.208 C 793.336 386.047, 792.099 386.235, 791.709 386.624 M 802.709 386.624 C 802.319 387.014, 802 389.508, 802 392.167 C 802 396.889, 802.070 397, 805.052 397 L 808.105 397 807.802 391.750 C 807.549 387.347, 807.171 386.453, 805.459 386.208 C 804.336 386.047, 803.099 386.235, 802.709 386.624 M 702.198 397.250 L 702.500 402.500 707.750 402.802 L 713 403.105 713 397.552 L 713 392 707.448 392 L 701.895 392 702.198 397.250 M 719 397.500 L 719 403 724.500 403 L 730 403 730 397.500 L 730 392 724.500 392 L 719 392 719 397.500 M 735.929 392.448 C 735.889 392.751, 735.825 395.137, 735.786 397.750 L 735.714 402.500 741.107 402.500 L 746.500 402.500 746.500 397.500 L 746.500 392.500 741.250 392.198 C 738.362 392.031, 735.968 392.144, 735.929 392.448 M 841 394.500 C 841 396.611, 841.467 397, 844 397 C 846.533 397, 847 396.611, 847 394.500 C 847 392.389, 846.533 392, 844 392 C 841.467 392, 841 392.389, 841 394.500 M 852 394.500 C 852 396.864, 852.300 397, 857.500 397 C 862.700 397, 863 396.864, 863 394.500 C 863 392.136, 862.700 392, 857.500 392 C 852.300 392, 852 392.136, 852 394.500 M 869 394.500 C 869 396.500, 869.500 397, 871.500 397 C 873.500 397, 874 396.500, 874 394.500 C 874 392.500, 873.500 392, 871.500 392 C 869.500 392, 869 392.500, 869 394.500 M 780 408.500 C 780 413.998, 780.063 414.125, 782.634 413.816 C 785.069 413.524, 785.275 413.123, 785.370 408.500 C 785.467 403.766, 785.326 403.483, 782.736 403.184 C 780.041 402.872, 780 402.952, 780 408.500 M 791.198 408.250 C 791.477 413.103, 791.689 413.500, 794 413.500 C 796.311 413.500, 796.523 413.103, 796.802 408.250 L 797.105 403 794 403 L 790.895 403 791.198 408.250 M 802.198 408.250 C 802.480 413.147, 802.685 413.521, 805.250 413.816 C 807.959 414.128, 808 414.049, 808 408.566 C 808 403.027, 807.985 403, 804.948 403 L 801.895 403 802.198 408.250 M 841 405.500 L 841 408 857.500 408 L 874 408 874 405.500 L 874 403 857.500 403 L 841 403 841 405.500 M 702.667 408.667 C 702.300 409.033, 702 411.508, 702 414.167 L 702 419 707.333 419 C 710.267 419, 712.854 418.813, 713.083 418.584 C 713.313 418.355, 713.344 415.880, 713.153 413.084 L 712.807 408 708.070 408 C 705.465 408, 703.033 408.300, 702.667 408.667 M 719.667 408.667 C 719.300 409.033, 719 411.508, 719 414.167 L 719 419 724.500 419 L 730 419 730 413.500 L 730 408 725.167 408 C 722.508 408, 720.033 408.300, 719.667 408.667 M 735.923 408.948 C 735.881 409.526, 735.810 411.913, 735.765 414.250 L 735.684 418.500 741.396 418.802 L 747.108 419.103 746.804 413.802 L 746.500 408.500 741.250 408.198 C 738.084 408.015, 735.969 408.313, 735.923 408.948 M 841 416.500 L 841 419 857.861 419 L 874.723 419 874.245 416.500 L 873.767 414 857.383 414 L 841 414 841 416.500 M 702.667 425.667 C 702.300 426.033, 702 428.508, 702 431.167 L 702 436 707.500 436 L 713 436 713 430.500 L 713 425 708.167 425 C 705.508 425, 703.033 425.300, 702.667 425.667 M 719 430.500 L 719 436 724.500 436 L 730 436 730 430.500 L 730 425 724.500 425 L 719 425 719 430.500 M 841 427.500 L 841 430 857.861 430 L 874.723 430 874.245 427.500 L 873.767 425 857.383 425 L 841 425 841 427.500 M 892.500 433.277 C 884.079 436.724, 877.173 442.950, 874.395 449.596 C 872.162 454.942, 870.982 462.214, 871.773 465.764 L 872.500 469.028 949 469.012 L 1025.500 468.995 1025.430 465.217 C 1025.284 457.324, 1018.104 447.541, 1009.028 442.869 C 998.970 437.691, 984.684 440.112, 976.399 448.398 C 974.144 450.654, 972.024 453.175, 971.688 454 C 971.203 455.190, 970.718 454.983, 969.345 453 C 962.237 442.741, 951.791 437.283, 941.137 438.259 C 935.532 438.773, 927 441.777, 927 443.236 C 927 444.881, 924.757 443.865, 922.520 441.206 C 918.566 436.507, 909.531 432.577, 902.032 432.295 C 898.439 432.159, 894.150 432.601, 892.500 433.277 M 745.358 439.026 C 734.723 442.326, 727 452.459, 727 463.114 L 727 469 781 469 C 810.700 469, 835.337 469.018, 835.750 469.040 C 837.331 469.123, 837.013 465.109, 835.015 459.768 C 832.094 451.963, 826.447 445.922, 818.908 442.539 C 810.756 438.881, 802.008 439.238, 794.082 443.552 C 789.207 446.205, 783.984 451.051, 782.654 454.153 C 782.237 455.126, 781.593 454.806, 780.334 453 C 777.126 448.396, 769.785 441.808, 766.188 440.305 C 761.782 438.464, 749.584 437.715, 745.358 439.026" stroke="none" fill="black" fill-rule="evenodd"/>
</svg>