<svg xmlns="http://www.w3.org/2000/svg" width="400" height="400" viewBox="0 0 400 400" version="1.1">
	<path d="M 80.031 23.750 C 79.456 25.813, 76.362 36.050, 73.156 46.500 L 67.327 65.500 74.163 66.389 L 81 67.277 81 147.639 L 81 228 92.750 228.017 L 104.500 228.034 106.735 233.767 C 107.964 236.920, 120.106 270.887, 133.716 309.250 C 147.327 347.613, 158.934 379, 159.509 379 C 160.085 379, 161.326 379.900, 162.268 381 C 163.925 382.936, 165.208 383, 202.240 382.985 C 223.283 382.976, 241.105 382.586, 241.845 382.117 C 242.584 381.648, 254.409 349.593, 268.122 310.882 C 281.835 272.172, 293.961 239.375, 295.069 238 C 296.177 236.625, 297.852 233.817, 298.792 231.760 L 300.500 228.020 309.203 228.010 L 317.907 228 318.351 201.750 C 318.595 187.313, 319.108 173.640, 319.491 171.367 C 319.936 168.730, 319.792 166.989, 319.094 166.558 C 318.318 166.079, 318 144.663, 318 92.941 L 318 20 278.658 20 L 239.317 20 238.214 23.750 C 237.608 25.813, 228.947 57.425, 218.969 94 C 208.990 130.575, 200.500 160.843, 200.101 161.262 C 199.703 161.681, 191.411 133.106, 181.675 97.762 C 171.939 62.418, 163.059 30.462, 161.940 26.750 L 159.906 20 120.491 20 L 81.077 20 80.031 23.750 M 139.081 144.250 L 139 162 143.500 162 C 146.438 162, 147.997 161.566, 147.991 160.750 C 147.987 160.063, 145.998 152.075, 143.573 143 L 139.163 126.500 139.081 144.250 M 255.569 143.750 C 253.443 152.412, 251.497 160.063, 251.245 160.750 C 250.920 161.636, 252.129 162, 255.393 162 L 260 162 260 145 C 260 135.650, 259.873 128, 259.717 128 C 259.562 128, 257.695 135.088, 255.569 143.750 M 177.580 234.511 C 177.841 240.753, 179.815 247.779, 195.678 298.927 C 198.001 306.418, 199.494 309.863, 200.013 308.927 C 200.841 307.433, 221.009 242.673, 222.977 235.187 C 223.600 232.816, 224.359 230.228, 224.662 229.437 C 225.133 228.212, 221.678 228, 201.261 228 L 177.308 228 177.580 234.511" stroke="none" fill="black" fill-rule="evenodd"/>
</svg>