<svg xmlns="http://www.w3.org/2000/svg" width="427" height="404" viewBox="0 0 427 404" version="1.1">
	<path d="M 86 134.500 L 86 194 145 194 L 204 194 204 134.500 L 204 75 145 75 L 86 75 86 134.500 M 244.762 76.942 C 225.110 83.224, 212.830 101.376, 214.280 122 C 215.212 135.266, 221.137 146.341, 231.524 154.233 C 239.031 159.938, 245.917 162.239, 257.054 162.765 L 266.608 163.217 268.281 167.858 C 271.827 177.689, 282.189 187.897, 293 192.207 C 297.641 194.058, 300.971 194.461, 314.326 194.789 C 332.152 195.228, 334.746 194.862, 335.898 191.746 C 336.827 189.235, 331.152 165.753, 329.127 163.726 C 328.359 162.957, 323.411 162.313, 315.866 162 L 303.830 161.500 300.915 158.234 C 298.733 155.790, 298 153.970, 298 151 C 298 148.030, 298.733 146.210, 300.915 143.766 L 303.830 140.500 315.866 140 C 323.411 139.687, 328.359 139.043, 329.127 138.274 C 331.152 136.247, 336.827 112.765, 335.898 110.254 C 334.746 107.138, 332.152 106.772, 314.326 107.211 C 300.971 107.539, 297.641 107.942, 293 109.793 C 285.749 112.684, 278.410 118.360, 273.609 124.789 L 269.719 130 261.759 130 C 254.041 130, 253.697 129.897, 250.400 126.600 C 245.824 122.024, 245.645 116.549, 249.915 111.766 L 252.830 108.500 264.996 108 C 275.197 107.581, 277.375 107.209, 278.479 105.698 C 279.992 103.629, 285.442 82.495, 285.230 79.519 C 284.951 75.583, 282.434 74.997, 266.059 75.054 C 253.832 75.096, 249.271 75.500, 244.762 76.942 M 86 267.500 L 86 327 145 327 L 204 327 204 267.500 L 204 208 145 208 L 86 208 86 267.500 M 221 267.500 L 221 327 280 327 L 339 327 339 267.500 L 339 208 280 208 L 221 208 221 267.500" stroke="none" fill="black" fill-rule="evenodd"/>
</svg>