<svg xmlns="http://www.w3.org/2000/svg" width="512" height="512" viewBox="0 0 512 512" version="1.1">
	<path d="M 232.500 32.176 C 182.640 37.196, 133.157 60.878, 97.018 97.018 C 29.081 164.954, 11.755 268.442, 53.911 354.500 C 76.307 400.220, 111.780 435.693, 157.500 458.089 C 243.558 500.245, 347.046 482.919, 414.982 414.982 C 432.986 396.979, 446.722 377.706, 458.089 354.500 C 500.245 268.442, 482.919 164.954, 414.982 97.018 C 367.140 49.175, 300.135 25.366, 232.500 32.176 M 232 57.517 C 155.113 67.040, 90.083 120.354, 66.135 193.500 C 43.073 263.936, 60.350 340.331, 111.426 393.781 C 188.186 474.106, 314.435 476.894, 394.367 400.027 C 476.380 321.160, 476.380 190.840, 394.367 111.973 C 351.067 70.333, 291.048 50.204, 232 57.517 M 142 255.500 L 142 384 170.994 384 L 199.988 384 200.244 305.750 L 200.500 227.500 228.503 283.252 L 256.506 339.005 284.503 283.252 L 312.500 227.500 312.756 305.750 L 313.012 384 341.506 384 L 370 384 370 255.500 L 370 127 337.151 127 L 304.302 127 281.021 175.250 C 268.217 201.787, 257.416 223.861, 257.017 224.303 C 256.319 225.078, 249.698 210.737, 224.445 153.750 L 212.591 127 177.295 127 L 142 127 142 255.500" stroke="none" fill="black" fill-rule="evenodd"/>
</svg>