<svg xmlns="http://www.w3.org/2000/svg" width="427" height="404" viewBox="0 0 427 404" version="1.1">
	<path d="M 54 119 L 54 192 127 192 L 200 192 200 119 L 200 46 127 46 L 54 46 54 119 M 252.112 48.581 C 234.297 53.372, 219.198 68.623, 214.531 86.542 C 205.903 119.669, 231.290 153, 265.151 153 L 271.883 153 275.191 159.234 C 279.440 167.240, 288.833 176.688, 296.581 180.750 C 306.646 186.026, 312.266 187, 332.639 187 C 352.230 187, 354.029 186.551, 353.977 181.679 C 353.931 177.379, 347.118 152.690, 345.542 151.112 C 344.274 149.842, 341.016 149.394, 330.165 149 C 319.169 148.601, 315.845 148.137, 313.651 146.696 C 304.826 140.898, 304.826 127.102, 313.651 121.304 C 315.845 119.863, 319.169 119.399, 330.165 119 C 341.016 118.606, 344.274 118.158, 345.542 116.888 C 347.118 115.310, 353.931 90.621, 353.977 86.321 C 354.029 81.449, 352.230 81, 332.639 81 C 312.266 81, 306.646 81.974, 296.581 87.250 C 288.833 91.312, 279.440 100.760, 275.191 108.766 L 271.883 115 266.691 114.996 C 263.277 114.994, 260.385 114.312, 258.241 113.005 C 248.868 107.291, 248.547 93.285, 257.651 87.304 C 259.845 85.863, 263.169 85.399, 274.165 85 C 285.016 84.606, 288.274 84.158, 289.542 82.888 C 291.118 81.310, 297.931 56.621, 297.977 52.321 C 298.029 47.417, 296.280 46.995, 276.179 47.066 C 263.200 47.112, 255.856 47.574, 252.112 48.581 M 256.108 53.082 C 237.604 56.716, 221.730 73.607, 218.755 92.829 C 214.894 117.774, 232.158 142.289, 256.891 146.979 C 259.851 147.541, 269.235 148, 277.743 148 C 289.999 148, 293.111 147.731, 292.717 146.704 C 292.443 145.992, 290.971 139.959, 289.446 133.299 L 286.671 121.188 273.586 120.844 C 261.399 120.524, 260.176 120.309, 255.777 117.723 C 242.073 109.668, 242.073 90.332, 255.777 82.277 C 260.176 79.691, 261.399 79.476, 273.586 79.156 L 286.671 78.812 289.446 66.701 C 290.971 60.041, 292.443 54.008, 292.717 53.296 C 293.112 52.265, 289.872 52.022, 276.857 52.110 C 267.861 52.170, 258.524 52.607, 256.108 53.082 M 54 283 L 54 356 127 356 L 200 356 200 283 L 200 210 127 210 L 54 210 54 283 M 220 283 L 220 356 293 356 L 366 356 366 283 L 366 210 293 210 L 220 210 220 283" stroke="none" fill="black" fill-rule="evenodd"/>
</svg>