<svg xmlns="http://www.w3.org/2000/svg" width="400" height="400" viewBox="0 0 400 400" version="1.1">
	<path d="M 100.943 51.250 C 100.912 51.388, 98.281 59.825, 95.096 70 C 91.912 80.175, 89.489 88.838, 89.712 89.250 C 89.936 89.662, 92.289 90, 94.942 90 C 99.100 90, 99.850 90.311, 100.370 92.250 C 100.701 93.487, 100.979 123.638, 100.986 159.250 L 101 224 110.487 224 L 119.973 224 121.588 227.750 C 122.476 229.813, 132.570 257.779, 144.019 289.897 C 161.226 338.168, 165.310 348.703, 167.573 350.647 L 170.311 353 201.906 352.985 C 219.282 352.976, 234.083 352.600, 234.795 352.148 C 235.507 351.696, 245.481 324.948, 256.960 292.708 C 268.784 259.497, 278.887 232.661, 280.267 230.795 C 281.608 228.983, 282.982 226.713, 283.321 225.750 C 283.834 224.293, 285.197 224, 291.469 224 L 299 224 299.209 201.250 C 299.325 188.738, 299.389 176.925, 299.353 175 C 299.316 173.075, 299.189 144.922, 299.069 112.439 C 298.949 79.955, 298.517 52.836, 298.108 52.175 C 297.548 51.269, 289.379 51.037, 265.004 51.236 L 232.643 51.500 231.949 54 C 228.572 66.167, 209.816 134.428, 205.845 149 C 203.073 159.175, 200.511 167.813, 200.152 168.196 C 199.793 168.579, 194.817 151.929, 189.094 131.196 C 183.371 110.463, 175.988 83.938, 172.687 72.250 L 166.686 51 133.843 51 C 115.779 51, 100.974 51.112, 100.943 51.250 M 149.071 154.250 L 149 169 153 169 C 155.200 169, 156.990 168.887, 156.978 168.750 C 156.966 168.613, 155.198 161.975, 153.049 154 L 149.143 139.500 149.071 154.250 M 246.727 152.757 C 245.202 159.216, 243.687 165.512, 243.360 166.750 C 242.825 168.778, 243.124 169, 246.383 169 L 250 169 250 155 C 250 147.300, 249.887 141.003, 249.750 141.007 C 249.613 141.011, 248.252 146.299, 246.727 152.757 M 181.509 229.750 C 181.693 233.532, 184.764 245.086, 190.480 263.500 C 195.260 278.900, 199.326 291.657, 199.517 291.848 C 199.960 292.293, 216.841 239.059, 219.843 227.750 L 220.839 224 201.034 224 L 181.230 224 181.509 229.750" stroke="none" fill="black" fill-rule="evenodd"/>
</svg>